<svg width="512" height="512" version="1.1" xmlns="http://www.w3.org/2000/svg" desc="Created with imagetracer.js version 1.2.6" ><path fill="rgb(29,131,206)" stroke="rgb(29,131,206)" stroke-width="1" opacity="0.4745098039215686" d="M 100.5 16 L 102 16.5 L 98 18 L 96.5 22 L 96 20.5 L 98.5 17 L 100.5 16 Z " /><path fill="rgb(29,131,206)" stroke="rgb(29,131,206)" stroke-width="1" opacity="0.4745098039215686" d="M 426.5 16 L 431 18.5 L 432 21.5 L 431 21.5 L 430 18 Q 425.8 18.1 426.5 16 Z " /><path fill="rgb(29,131,206)" stroke="rgb(29,131,206)" stroke-width="1" opacity="0.4745098039215686" d="M 170.5 152 L 173.5 153 L 184.5 163 L 196 152.5 L 183.5 164 L 173.5 154 L 170.5 153 L 170.5 152 Z " /><path fill="rgb(29,131,206)" stroke="rgb(29,131,206)" stroke-width="1" opacity="0.4745098039215686" d="M 162.5 153 L 161.5 155 L 162.5 153 Z " /><path fill="rgb(29,131,206)" stroke="rgb(29,131,206)" stroke-width="1" opacity="0.4745098039215686" d="M 160.5 162 L 162 165.5 L 178.5 182 L 182 183.5 L 180.5 184 L 161 165.5 L 160.5 162 Z " /><path fill="rgb(29,131,206)" stroke="rgb(29,131,206)" stroke-width="1" opacity="0.4745098039215686" d="M 199.5 172 L 189.5 183 L 186.5 184 L 186.5 183 L 189.5 182 L 199.5 172 Z " /><path fill="rgb(29,131,206)" stroke="rgb(29,131,206)" stroke-width="1" opacity="0.4745098039215686" d="M 432.5 230 L 482 279.5 L 490 293.5 L 489 293.5 L 480 278.5 L 432.5 230 Z " /><path fill="rgb(29,131,206)" stroke="rgb(29,131,206)" stroke-width="1" opacity="0.4745098039215686" d="M 170.5 232 L 173.5 233 L 184.5 243 L 196 232.5 L 183.5 244 L 173.5 234 L 170.5 233 L 170.5 232 Z " /><path fill="rgb(29,131,206)" stroke="rgb(29,131,206)" stroke-width="1" opacity="0.4745098039215686" d="M 162.5 233 L 161.5 235 L 162.5 233 Z " /><path fill="rgb(29,131,206)" stroke="rgb(29,131,206)" stroke-width="1" opacity="0.4745098039215686" d="M 160.5 242 L 162 245.5 L 178.5 262 L 182 263.5 L 180.5 264 L 161 245.5 L 160.5 242 Z " /><path fill="rgb(29,131,206)" stroke="rgb(29,131,206)" stroke-width="1" opacity="0.4745098039215686" d="M 199.5 252 L 189.5 263 L 186.5 264 L 186.5 263 L 189.5 262 L 199.5 252 Z " /><path fill="rgb(29,131,206)" stroke="rgb(29,131,206)" stroke-width="1" opacity="0.4745098039215686" d="M 432.5 253 L 468 288.5 L 476 302.5 L 475 302.5 L 467 288.5 L 432.5 253 Z " /><path fill="rgb(29,131,206)" stroke="rgb(29,131,206)" stroke-width="1" opacity="0.4745098039215686" d="M 369.5 288 Q 376.9 287.1 380.5 290 L 439.5 349 Q 441.8 352.2 448.5 351 L 452 348.5 L 453 340.5 L 432 318.5 L 453 338.5 L 454 346.5 L 450.5 351 L 442.5 352 L 380.5 291 Q 376.9 288.1 369.5 289 L 369.5 288 Z " /><path fill="rgb(29,131,206)" stroke="rgb(29,131,206)" stroke-width="1" opacity="0.4745098039215686" d="M 364.5 290 L 363.5 292 L 360 294.5 Q 355.9 298.9 356.5 308 L 356 300.5 L 362.5 291 L 364.5 290 Z " /><path fill="rgb(29,131,206)" stroke="rgb(29,131,206)" stroke-width="1" opacity="0.4745098039215686" d="M 490.5 295 L 492 298.5 L 491 298.5 L 490.5 295 Z " /><path fill="rgb(29,131,206)" stroke="rgb(29,131,206)" stroke-width="1" opacity="0.4745098039215686" d="M 493.5 303 L 494 305.5 L 493 305.5 L 493.5 303 Z " /><path fill="rgb(29,131,206)" stroke="rgb(29,131,206)" stroke-width="1" opacity="0.4745098039215686" d="M 477.5 307 L 479 313.5 L 478 313.5 L 477.5 307 Z " /><path fill="rgb(29,131,206)" stroke="rgb(29,131,206)" stroke-width="1" opacity="0.4745098039215686" d="M 494.5 307 L 495 309.5 L 494 309.5 L 494.5 307 Z " /><path fill="rgb(29,131,206)" stroke="rgb(29,131,206)" stroke-width="1" opacity="0.4745098039215686" d="M 357.5 309 L 359 312.5 L 404 357.5 L 406 364.5 L 405 364.5 L 403 357.5 L 358 312.5 L 357.5 309 Z " /><path fill="rgb(29,131,206)" stroke="rgb(29,131,206)" stroke-width="1" opacity="0.4745098039215686" d="M 170.5 312 L 173.5 313 L 184.5 323 L 196 312.5 L 183.5 324 L 173.5 314 L 170.5 313 L 170.5 312 Z " /><path fill="rgb(29,131,206)" stroke="rgb(29,131,206)" stroke-width="1" opacity="0.4745098039215686" d="M 495.5 312 L 496 317.5 L 495 317.5 L 495.5 312 Z " /><path fill="rgb(29,131,206)" stroke="rgb(29,131,206)" stroke-width="1" opacity="0.4745098039215686" d="M 162.5 313 L 161.5 315 L 162.5 313 Z " /><path fill="rgb(29,131,206)" stroke="rgb(29,131,206)" stroke-width="1" opacity="0.4745098039215686" d="M 479.5 315 L 480 323.5 L 479 323.5 L 479.5 315 Z " /><path fill="rgb(29,131,206)" stroke="rgb(29,131,206)" stroke-width="1" opacity="0.4745098039215686" d="M 160.5 322 L 162 325.5 L 178.5 342 L 182 343.5 L 180.5 344 L 161 325.5 L 160.5 322 Z " /><path fill="rgb(29,131,206)" stroke="rgb(29,131,206)" stroke-width="1" opacity="0.4745098039215686" d="M 199.5 332 L 189.5 343 L 186.5 344 L 186.5 343 L 189.5 342 L 199.5 332 Z " /><path fill="rgb(29,131,206)" stroke="rgb(29,131,206)" stroke-width="1" opacity="0.4745098039215686" d="M 404.5 366 L 405 367.5 Q 398.2 373.7 395.5 384 L 395 381.5 L 404.5 366 Z " /><path fill="rgb(29,131,206)" stroke="rgb(29,131,206)" stroke-width="1" opacity="0.4745098039215686" d="M 394.5 385 L 395 387.5 L 394 387.5 L 394.5 385 Z " /><path fill="rgb(29,131,206)" stroke="rgb(29,131,206)" stroke-width="1" opacity="0.4745098039215686" d="M 393.5 389 L 394 402.5 L 393 402.5 L 393.5 389 Z " /><path fill="rgb(29,131,206)" stroke="rgb(29,131,206)" stroke-width="1" opacity="0.4745098039215686" d="M 96.5 402 L 98 406 L 102 407.5 L 100.5 408 L 97 405.5 L 96.5 402 Z " /><path fill="rgb(29,131,206)" stroke="rgb(29,131,206)" stroke-width="1" opacity="0.4745098039215686" d="M 394.5 404 L 395 406.5 L 394 406.5 L 394.5 404 Z " /><path fill="rgb(29,131,206)" stroke="rgb(29,131,206)" stroke-width="1" opacity="0.4745098039215686" d="M 334.5 408 L 335 414.5 L 334 414.5 L 334.5 408 Z " /><path fill="rgb(29,131,206)" stroke="rgb(29,131,206)" stroke-width="1" opacity="0.4745098039215686" d="M 350.5 411 L 351 430.5 L 350 430.5 L 350.5 411 Z " /><path fill="rgb(29,131,206)" stroke="rgb(29,131,206)" stroke-width="1" opacity="0.4745098039215686" d="M 379.5 411 L 382 418.5 L 381 418.5 L 379.5 411 Z " /><path fill="rgb(29,131,206)" stroke="rgb(29,131,206)" stroke-width="1" opacity="0.4745098039215686" d="M 396.5 411 L 408 429.5 L 407 429.5 L 398 416.5 L 396.5 411 Z " /><path fill="rgb(29,131,206)" stroke="rgb(29,131,206)" stroke-width="1" opacity="0.4745098039215686" d="M 382.5 420 L 394 438 L 402 440.5 L 398.5 441 L 393 437.5 L 383 423.5 L 382.5 420 Z " /><path fill="rgb(29,131,206)" stroke="rgb(29,131,206)" stroke-width="1" opacity="0.4745098039215686" d="M 334.5 427 L 335 433.5 L 334 433.5 L 334.5 427 Z " /><path fill="rgb(29,131,206)" stroke="rgb(29,131,206)" stroke-width="1" opacity="0.4745098039215686" d="M 408.5 431 L 409 433.5 L 408 433.5 L 408.5 431 Z " /><path fill="rgb(29,131,206)" stroke="rgb(29,131,206)" stroke-width="1" opacity="0.4745098039215686" d="M 351.5 432 L 352 435.5 L 351 435.5 L 351.5 432 Z " /><path fill="rgb(29,131,206)" stroke="rgb(29,131,206)" stroke-width="1" opacity="0.4745098039215686" d="M 479.5 433 L 480 440.5 L 479 440.5 L 479.5 433 Z " /><path fill="rgb(29,131,206)" stroke="rgb(29,131,206)" stroke-width="1" opacity="0.4745098039215686" d="M 407.5 435 L 408 436.5 L 403.5 440 L 403.5 439 L 407 436.5 L 407.5 435 Z " /><path fill="rgb(29,131,206)" stroke="rgb(29,131,206)" stroke-width="1" opacity="0.4745098039215686" d="M 335.5 436 L 336 439.5 L 335 439.5 L 335.5 436 Z " /><path fill="rgb(29,131,206)" stroke="rgb(29,131,206)" stroke-width="1" opacity="0.4745098039215686" d="M 352.5 437 L 353 439.5 L 352 439.5 L 352.5 437 Z " /><path fill="rgb(29,131,206)" stroke="rgb(29,131,206)" stroke-width="1" opacity="0.4745098039215686" d="M 495.5 439 L 496 443.5 L 495 443.5 L 495.5 439 Z " /><path fill="rgb(29,131,206)" stroke="rgb(29,131,206)" stroke-width="1" opacity="0.4745098039215686" d="M 336.5 441 L 338 446.5 L 337 446.5 L 336.5 441 Z " /><path fill="rgb(29,131,206)" stroke="rgb(29,131,206)" stroke-width="1" opacity="0.4745098039215686" d="M 353.5 441 L 355 445.5 L 354 445.5 L 353.5 441 Z " /><path fill="rgb(29,131,206)" stroke="rgb(29,131,206)" stroke-width="1" opacity="0.4745098039215686" d="M 478.5 442 L 479 444.5 L 478 444.5 L 478.5 442 Z " /><path fill="rgb(29,131,206)" stroke="rgb(29,131,206)" stroke-width="1" opacity="0.4745098039215686" d="M 494.5 445 L 495 448.5 Q 490.4 463.4 481 473.5 L 480.5 489 L 480 473.5 Q 490.5 462.5 494.5 445 Z " /><path fill="rgb(29,131,206)" stroke="rgb(29,131,206)" stroke-width="1" opacity="0.4745098039215686" d="M 477.5 446 L 478 447.5 L 465.5 469 L 465 467.5 L 477.5 446 Z " /><path fill="rgb(29,131,206)" stroke="rgb(29,131,206)" stroke-width="1" opacity="0.4745098039215686" d="M 355.5 447 L 368 469.5 L 367 469.5 L 360 458.5 L 355 448.5 L 355.5 447 Z " /><path fill="rgb(29,131,206)" stroke="rgb(29,131,206)" stroke-width="1" opacity="0.4745098039215686" d="M 339.5 451 Q 344.3 464.3 352 474.5 L 351 474.5 L 340 455.5 L 339.5 451 Z " /><path fill="rgb(29,131,206)" stroke="rgb(29,131,206)" stroke-width="1" opacity="0.4745098039215686" d="M 464.5 470 L 465 473.5 L 464 473.5 L 464.5 470 Z " /><path fill="rgb(29,131,206)" stroke="rgb(29,131,206)" stroke-width="1" opacity="0.4745098039215686" d="M 464.5 489 L 468.5 495 L 470 495.5 L 468.5 496 L 465 493.5 L 464.5 489 Z " /><path fill="rgb(29,131,206)" stroke="rgb(29,131,206)" stroke-width="1" opacity="0.4745098039215686" d="M 352.5 490 L 354 494 L 358 495.5 L 356.5 496 L 353 493.5 L 352.5 490 Z " /><path fill="rgb(29,131,206)" stroke="rgb(29,131,206)" stroke-width="1" opacity="0.4745098039215686" d="M 367.5 490 L 368 491.5 L 365.5 495 L 362.5 496 L 362.5 495 L 367 491.5 L 367.5 490 Z " /><path fill="rgb(29,131,206)" stroke="rgb(29,131,206)" stroke-width="1" opacity="0.4745098039215686" d="M 479.5 490 L 480 491.5 L 477.5 495 L 474.5 496 L 474.5 495 L 478 494 L 479.5 490 Z " /><path fill="rgb(140,192,249)" stroke="rgb(140,192,249)" stroke-width="1" opacity="1" d="M 220.5 128 L 222 128.5 L 219.5 130 L 220.5 128 Z " /><path fill="rgb(140,192,249)" stroke="rgb(140,192,249)" stroke-width="1" opacity="1" d="M 226.5 128 L 229 129.5 L 227.5 129 L 226.5 128 Z " /><path fill="rgb(140,192,249)" stroke="rgb(140,192,249)" stroke-width="1" opacity="1" d="M 230.5 131 L 232 133.5 L 231 133.5 L 230.5 131 Z " /><path fill="rgb(140,192,249)" stroke="rgb(140,192,249)" stroke-width="1" opacity="1" d="M 203.5 136 L 204.5 138 L 203.5 136 Z " /><path fill="rgb(140,192,249)" stroke="rgb(140,192,249)" stroke-width="1" opacity="1" d="M 231.5 138 L 232 139.5 L 230 140.5 L 231.5 138 Z " /><path fill="rgb(140,192,249)" stroke="rgb(140,192,249)" stroke-width="1" opacity="1" d="M 206.5 139 L 207.5 141 L 206.5 139 Z " /><path fill="rgb(140,192,249)" stroke="rgb(140,192,249)" stroke-width="1" opacity="1" d="M 220.5 208 L 222 208.5 L 219.5 210 L 220.5 208 Z " /><path fill="rgb(140,192,249)" stroke="rgb(140,192,249)" stroke-width="1" opacity="1" d="M 226.5 208 L 229 209.5 L 227.5 209 L 226.5 208 Z " /><path fill="rgb(140,192,249)" stroke="rgb(140,192,249)" stroke-width="1" opacity="1" d="M 230.5 211 L 232 213.5 L 231 213.5 L 230.5 211 Z " /><path fill="rgb(140,192,249)" stroke="rgb(140,192,249)" stroke-width="1" opacity="1" d="M 203.5 216 L 204.5 218 L 203.5 216 Z " /><path fill="rgb(140,192,249)" stroke="rgb(140,192,249)" stroke-width="1" opacity="1" d="M 231.5 218 L 232 219.5 L 230 220.5 L 231.5 218 Z " /><path fill="rgb(140,192,249)" stroke="rgb(140,192,249)" stroke-width="1" opacity="1" d="M 206.5 219 L 207.5 221 L 206.5 219 Z " /><path fill="rgb(140,192,249)" stroke="rgb(140,192,249)" stroke-width="1" opacity="1" d="M 367.5 272 L 378 272.5 L 367.5 273 L 367.5 272 Z " /><path fill="rgb(140,192,249)" stroke="rgb(140,192,249)" stroke-width="1" opacity="1" d="M 357.5 275 L 359 275.5 L 356.5 277 L 357.5 275 Z " /><path fill="rgb(140,192,249)" stroke="rgb(140,192,249)" stroke-width="1" opacity="1" d="M 352.5 278 L 346.5 285 L 352.5 278 Z " /><path fill="rgb(140,192,249)" stroke="rgb(140,192,249)" stroke-width="1" opacity="1" d="M 391.5 278 L 392.5 280 L 391.5 278 Z " /><path fill="rgb(140,192,249)" stroke="rgb(140,192,249)" stroke-width="1" opacity="1" d="M 345.5 286 L 344.5 288 L 345.5 286 Z " /><path fill="rgb(140,192,249)" stroke="rgb(140,192,249)" stroke-width="1" opacity="1" d="M 220.5 288 L 222 288.5 L 219.5 290 L 220.5 288 Z " /><path fill="rgb(140,192,249)" stroke="rgb(140,192,249)" stroke-width="1" opacity="1" d="M 226.5 288 L 229 289.5 L 227.5 289 L 226.5 288 Z " /><path fill="rgb(140,192,249)" stroke="rgb(140,192,249)" stroke-width="1" opacity="1" d="M 230.5 291 L 232 293.5 L 231 293.5 L 230.5 291 Z " /><path fill="rgb(140,192,249)" stroke="rgb(140,192,249)" stroke-width="1" opacity="1" d="M 203.5 296 L 204.5 298 L 203.5 296 Z " /><path fill="rgb(140,192,249)" stroke="rgb(140,192,249)" stroke-width="1" opacity="1" d="M 231.5 298 L 232 299.5 L 230 300.5 L 231.5 298 Z " /><path fill="rgb(140,192,249)" stroke="rgb(140,192,249)" stroke-width="1" opacity="1" d="M 340.5 298 L 341 300.5 L 340 300.5 L 340.5 298 Z " /><path fill="rgb(140,192,249)" stroke="rgb(140,192,249)" stroke-width="1" opacity="1" d="M 206.5 299 L 207.5 301 L 206.5 299 Z " /><path fill="rgb(140,192,249)" stroke="rgb(140,192,249)" stroke-width="1" opacity="1" d="M 340.5 308 L 341 310.5 L 340 310.5 L 340.5 308 Z " /><path fill="rgb(140,192,249)" stroke="rgb(140,192,249)" stroke-width="1" opacity="1" d="M 345.5 322 L 346.5 324 L 345.5 322 Z " /><path fill="rgb(140,192,249)" stroke="rgb(140,192,249)" stroke-width="1" opacity="1" d="M 379.5 357 L 380.5 359 L 379.5 357 Z " /><path fill="rgb(140,192,249)" stroke="rgb(140,192,249)" stroke-width="1" opacity="1" d="M 382.5 360 L 384.5 363 L 382.5 360 Z " /><path fill="rgb(140,192,249)" stroke="rgb(140,192,249)" stroke-width="1" opacity="1" d="M 377.5 387 L 378 391.5 L 377 391.5 L 377.5 387 Z " /><path fill="rgb(0,0,0)" stroke="rgb(0,0,0)" stroke-width="1" opacity="0" d="M 0 0 L 512 0 L 512 512 L 0 512 L 0 0 Z M 101 16 L 99 17 L 96 21 L 96 404 L 97 406 L 101 408 L 334 408 L 334 434 Q 336 435 335 440 Q 340 461 352 476 L 352 492 L 353 494 L 357 496 L 366 495 L 368 492 L 368 469 Q 355 454 351 432 L 351 411 L 352 410 L 353 408 L 378 408 Q 381 426 393 438 L 399 441 L 405 440 L 409 434 L 407 427 Q 400 420 396 411 L 394 404 Q 393 392 395 385 L 406 365 L 404 358 L 359 313 L 357 309 Q 356 299 360 295 L 369 289 Q 377 288 381 291 L 443 352 L 451 351 L 454 347 L 453 339 L 432 318 L 433 254 L 470 293 L 477 307 L 479 315 L 479 324 L 480 325 L 480 433 L 479 434 L 478 446 L 464 471 L 464 492 L 465 494 L 469 496 L 478 495 L 481 489 L 481 474 L 493 455 L 496 444 L 496 313 L 494 304 Q 490 290 482 280 L 432 230 L 432 21 L 431 19 L 428 16 L 101 16 Z " /><path fill="rgb(0,0,0)" stroke="rgb(0,0,0)" stroke-width="1" opacity="0" d="M 160 64 L 367.5 64 L 368 64.5 L 368 96 L 160.5 96 L 160 95.5 L 160 64 Z " /><path fill="rgb(0,0,0)" stroke="rgb(0,0,0)" stroke-width="1" opacity="0" d="M 160 152 L 164 152.5 L 161 154.5 L 160.5 156 L 160 152 Z " /><path fill="rgb(0,0,0)" stroke="rgb(0,0,0)" stroke-width="1" opacity="0" d="M 172.5 152 L 195 152.5 L 183.5 163 L 172.5 152 Z " /><path fill="rgb(0,0,0)" stroke="rgb(0,0,0)" stroke-width="1" opacity="0" d="M 160.5 164 L 178.5 183 L 180 183.5 L 160 184 L 160.5 164 Z " /><path fill="rgb(0,0,0)" stroke="rgb(0,0,0)" stroke-width="1" opacity="0" d="M 199.5 173 L 200 184 L 188 183.5 L 199.5 173 Z " /><path fill="rgb(0,0,0)" stroke="rgb(0,0,0)" stroke-width="1" opacity="0" d="M 160 232 L 164 232.5 L 161 234.5 L 160.5 236 L 160 232 Z " /><path fill="rgb(0,0,0)" stroke="rgb(0,0,0)" stroke-width="1" opacity="0" d="M 172.5 232 L 195 232.5 L 183.5 243 L 172.5 232 Z " /><path fill="rgb(0,0,0)" stroke="rgb(0,0,0)" stroke-width="1" opacity="0" d="M 160.5 244 L 178.5 263 L 180 263.5 L 160 264 L 160.5 244 Z " /><path fill="rgb(0,0,0)" stroke="rgb(0,0,0)" stroke-width="1" opacity="0" d="M 199.5 253 L 200 264 L 188 263.5 L 199.5 253 Z " /><path fill="rgb(0,0,0)" stroke="rgb(0,0,0)" stroke-width="1" opacity="0" d="M 160 312 L 164 312.5 L 161 314.5 L 160.5 316 L 160 312 Z " /><path fill="rgb(0,0,0)" stroke="rgb(0,0,0)" stroke-width="1" opacity="0" d="M 172.5 312 L 195 312.5 L 183.5 323 L 172.5 312 Z " /><path fill="rgb(0,0,0)" stroke="rgb(0,0,0)" stroke-width="1" opacity="0" d="M 160.5 324 L 178.5 343 L 180 343.5 L 160 344 L 160.5 324 Z " /><path fill="rgb(0,0,0)" stroke="rgb(0,0,0)" stroke-width="1" opacity="0" d="M 199.5 333 L 200 344 L 188 343.5 L 199.5 333 Z " /><path fill="rgb(30,129,206)" stroke="rgb(30,129,206)" stroke-width="1" opacity="0.996078431372549" d="M 196.5 152 L 184.5 165 L 173 154.5 L 183.5 164 L 196.5 152 Z " /><path fill="rgb(30,129,206)" stroke="rgb(30,129,206)" stroke-width="1" opacity="0.996078431372549" d="M 163.5 153 L 161.5 156 L 163.5 153 Z " /><path fill="rgb(30,129,206)" stroke="rgb(30,129,206)" stroke-width="1" opacity="0.996078431372549" d="M 162.5 165 L 178.5 182 L 162.5 165 Z " /><path fill="rgb(30,129,206)" stroke="rgb(30,129,206)" stroke-width="1" opacity="0.996078431372549" d="M 199.5 171 L 189.5 182 L 199.5 171 Z " /><path fill="rgb(30,129,206)" stroke="rgb(30,129,206)" stroke-width="1" opacity="0.996078431372549" d="M 182.5 183 L 186 183.5 L 182.5 184 L 182.5 183 Z " /><path fill="rgb(30,129,206)" stroke="rgb(30,129,206)" stroke-width="1" opacity="0.996078431372549" d="M 196.5 232 L 184.5 245 L 173 234.5 L 183.5 244 L 196.5 232 Z " /><path fill="rgb(30,129,206)" stroke="rgb(30,129,206)" stroke-width="1" opacity="0.996078431372549" d="M 163.5 233 L 161.5 236 L 163.5 233 Z " /><path fill="rgb(30,129,206)" stroke="rgb(30,129,206)" stroke-width="1" opacity="0.996078431372549" d="M 162.5 245 L 178.5 262 L 162.5 245 Z " /><path fill="rgb(30,129,206)" stroke="rgb(30,129,206)" stroke-width="1" opacity="0.996078431372549" d="M 199.5 251 L 189.5 262 L 199.5 251 Z " /><path fill="rgb(30,129,206)" stroke="rgb(30,129,206)" stroke-width="1" opacity="0.996078431372549" d="M 432.5 252 L 466.5 287 L 432.5 252 Z " /><path fill="rgb(30,129,206)" stroke="rgb(30,129,206)" stroke-width="1" opacity="0.996078431372549" d="M 182.5 263 L 186 263.5 L 182.5 264 L 182.5 263 Z " /><path fill="rgb(30,129,206)" stroke="rgb(30,129,206)" stroke-width="1" opacity="0.996078431372549" d="M 475.5 274 L 479.5 279 L 475.5 274 Z " /><path fill="rgb(30,129,206)" stroke="rgb(30,129,206)" stroke-width="1" opacity="0.996078431372549" d="M 481.5 281 L 482.5 283 L 481.5 281 Z " /><path fill="rgb(30,129,206)" stroke="rgb(30,129,206)" stroke-width="1" opacity="0.996078431372549" d="M 468.5 289 L 469.5 291 L 468.5 289 Z " /><path fill="rgb(30,129,206)" stroke="rgb(30,129,206)" stroke-width="1" opacity="0.996078431372549" d="M 381.5 290 L 439.5 349 L 381.5 290 Z " /><path fill="rgb(30,129,206)" stroke="rgb(30,129,206)" stroke-width="1" opacity="0.996078431372549" d="M 361.5 291 L 359.5 294 L 361.5 291 Z " /><path fill="rgb(30,129,206)" stroke="rgb(30,129,206)" stroke-width="1" opacity="0.996078431372549" d="M 358.5 295 L 357.5 297 L 358.5 295 Z " /><path fill="rgb(30,129,206)" stroke="rgb(30,129,206)" stroke-width="1" opacity="0.996078431372549" d="M 472.5 295 L 473.5 297 L 472.5 295 Z " /><path fill="rgb(30,129,206)" stroke="rgb(30,129,206)" stroke-width="1" opacity="0.996078431372549" d="M 196.5 312 L 184.5 325 L 173 314.5 L 183.5 324 L 196.5 312 Z " /><path fill="rgb(30,129,206)" stroke="rgb(30,129,206)" stroke-width="1" opacity="0.996078431372549" d="M 163.5 313 L 161.5 316 L 163.5 313 Z " /><path fill="rgb(30,129,206)" stroke="rgb(30,129,206)" stroke-width="1" opacity="0.996078431372549" d="M 358.5 313 L 402.5 358 L 358.5 313 Z " /><path fill="rgb(30,129,206)" stroke="rgb(30,129,206)" stroke-width="1" opacity="0.996078431372549" d="M 495.5 318 L 496 323.5 L 495 323.5 L 495.5 318 Z " /><path fill="rgb(30,129,206)" stroke="rgb(30,129,206)" stroke-width="1" opacity="0.996078431372549" d="M 432.5 319 L 450.5 338 L 432.5 319 Z " /><path fill="rgb(30,129,206)" stroke="rgb(30,129,206)" stroke-width="1" opacity="0.996078431372549" d="M 162.5 325 L 178.5 342 L 162.5 325 Z " /><path fill="rgb(30,129,206)" stroke="rgb(30,129,206)" stroke-width="1" opacity="0.996078431372549" d="M 199.5 331 L 189.5 342 L 199.5 331 Z " /><path fill="rgb(30,129,206)" stroke="rgb(30,129,206)" stroke-width="1" opacity="0.996078431372549" d="M 182.5 343 L 186 343.5 L 182.5 344 L 182.5 343 Z " /><path fill="rgb(30,129,206)" stroke="rgb(30,129,206)" stroke-width="1" opacity="0.996078431372549" d="M 451.5 348 L 450.5 350 L 451.5 348 Z " /><path fill="rgb(30,129,206)" stroke="rgb(30,129,206)" stroke-width="1" opacity="0.996078431372549" d="M 403.5 367 L 402.5 369 L 403.5 367 Z " /><path fill="rgb(30,129,206)" stroke="rgb(30,129,206)" stroke-width="1" opacity="0.996078431372549" d="M 400.5 371 L 399.5 373 L 400.5 371 Z " /><path fill="rgb(30,129,206)" stroke="rgb(30,129,206)" stroke-width="1" opacity="0.996078431372549" d="M 334.5 415 L 335 426.5 L 334 426.5 L 334.5 415 Z " /><path fill="rgb(30,129,206)" stroke="rgb(30,129,206)" stroke-width="1" opacity="0.996078431372549" d="M 398.5 417 L 399.5 419 L 398.5 417 Z " /><path fill="rgb(30,129,206)" stroke="rgb(30,129,206)" stroke-width="1" opacity="0.996078431372549" d="M 400.5 420 L 401.5 422 L 400.5 420 Z " /><path fill="rgb(30,129,206)" stroke="rgb(30,129,206)" stroke-width="1" opacity="0.996078431372549" d="M 403.5 424 L 405.5 427 L 403.5 424 Z " /><path fill="rgb(30,129,206)" stroke="rgb(30,129,206)" stroke-width="1" opacity="0.996078431372549" d="M 387.5 428 L 388.5 430 L 387.5 428 Z " /><path fill="rgb(30,129,206)" stroke="rgb(30,129,206)" stroke-width="1" opacity="0.996078431372549" d="M 390.5 432 L 392.5 435 L 390.5 432 Z " /><path fill="rgb(30,129,206)" stroke="rgb(30,129,206)" stroke-width="1" opacity="0.996078431372549" d="M 495.5 433 L 496 438.5 L 495 438.5 L 495.5 433 Z " /><path fill="rgb(30,129,206)" stroke="rgb(30,129,206)" stroke-width="1" opacity="0.996078431372549" d="M 406.5 436 L 404.5 439 L 406.5 436 Z " /><path fill="rgb(30,129,206)" stroke="rgb(30,129,206)" stroke-width="1" opacity="0.996078431372549" d="M 473.5 456 L 472.5 458 L 473.5 456 Z " /><path fill="rgb(30,129,206)" stroke="rgb(30,129,206)" stroke-width="1" opacity="0.996078431372549" d="M 471.5 459 L 470.5 461 L 471.5 459 Z " /><path fill="rgb(30,129,206)" stroke="rgb(30,129,206)" stroke-width="1" opacity="0.996078431372549" d="M 469.5 462 L 468.5 464 L 469.5 462 Z " /><path fill="rgb(30,129,206)" stroke="rgb(30,129,206)" stroke-width="1" opacity="0.996078431372549" d="M 487.5 462 L 486.5 464 L 487.5 462 Z " /><path fill="rgb(30,129,206)" stroke="rgb(30,129,206)" stroke-width="1" opacity="0.996078431372549" d="M 485.5 465 L 484.5 467 L 485.5 465 Z " /><path fill="rgb(30,129,206)" stroke="rgb(30,129,206)" stroke-width="1" opacity="0.996078431372549" d="M 348.5 468 L 349.5 470 L 348.5 468 Z " /><path fill="rgb(30,129,206)" stroke="rgb(30,129,206)" stroke-width="1" opacity="0.996078431372549" d="M 483.5 468 L 482.5 470 L 483.5 468 Z " /><path fill="rgb(30,129,206)" stroke="rgb(30,129,206)" stroke-width="1" opacity="0.996078431372549" d="M 350.5 471 L 351.5 473 L 350.5 471 Z " /><path fill="rgb(30,129,206)" stroke="rgb(30,129,206)" stroke-width="1" opacity="0.996078431372549" d="M 464.5 474 L 465 488.5 L 464 488.5 L 464.5 474 Z " /><path fill="rgb(30,129,206)" stroke="rgb(30,129,206)" stroke-width="1" opacity="0.996078431372549" d="M 358.5 495 L 362 495.5 L 358.5 496 L 358.5 495 Z " /><path fill="rgb(30,129,206)" stroke="rgb(30,129,206)" stroke-width="1" opacity="0.996078431372549" d="M 470.5 495 L 474 495.5 L 470.5 496 L 470.5 495 Z " /><path fill="rgb(30,129,206)" stroke="rgb(30,129,206)" stroke-width="1" opacity="1" d="M 104.5 16 L 423.5 16 L 430 19.5 L 432 24.5 L 432 230.5 L 475 273.5 Q 486.1 284.4 492 300.5 L 495 312.5 L 495 323.5 L 496 324.5 L 496 432.5 L 495 433.5 L 495 442.5 L 492 453.5 L 480 473.5 L 480 487.5 L 479 491.5 L 476.5 494 L 469.5 495 L 466 492.5 L 465 490.5 L 465 470.5 L 474 456.5 L 480 442.5 L 480 313.5 Q 476.6 296.9 467 286.5 L 432.5 252 L 432 319.5 L 452 339.5 L 453 345.5 L 449.5 350 L 443.5 351 L 381.5 290 Q 377.1 286.9 368.5 288 L 359 293.5 Q 354.3 298.3 356 309.5 L 358 313.5 L 404 359.5 L 405 364.5 Q 397.8 372.3 394 383.5 Q 391.4 391.4 393 403.5 L 398 417.5 L 406 427.5 L 408 432.5 L 403.5 439 L 399.5 440 L 393 435.5 Q 382.6 424.7 379 408 L 351.5 408 L 350 409.5 L 350 432.5 L 351 437.5 L 355 449.5 L 367 469.5 L 368 472.5 L 368 487.5 L 364.5 494 L 357.5 495 L 354 492.5 L 352 487.5 L 352 472.5 Q 340.5 459 336 438.5 L 335 433.5 L 335 408 L 104.5 408 L 98 404.5 L 96 399.5 L 96 24.5 L 99.5 18 L 104.5 16 Z M 112 32 L 112 392 L 378 392 Q 378 375 386 366 L 386 364 L 347 325 Q 342 318 340 308 Q 340 293 346 286 Q 352 276 365 273 L 380 273 L 394 280 L 416 302 L 416 32 L 112 32 Z " /><path fill="rgb(30,129,206)" stroke="rgb(30,129,206)" stroke-width="1" opacity="1" d="M 149.5 48 L 378.5 48 L 383 51.5 L 384 54.5 L 384 105.5 L 380.5 111 L 377.5 112 L 150.5 112 L 145 108.5 L 144 106.5 L 144 53.5 L 147.5 49 L 149.5 48 Z M 160 64 L 160 96 L 161 96 L 368 96 L 368 65 L 368 64 L 160 64 Z " /><path fill="rgb(30,129,206)" stroke="rgb(30,129,206)" stroke-width="1" opacity="1" d="M 222.5 128 L 230 130 L 232 137.5 L 230 141.5 L 200.5 171 L 188.5 182 L 181.5 183 L 162 164.5 L 160.5 161 L 160 184 L 202.5 184 L 207 187.5 L 208 193.5 L 204.5 199 L 201.5 200 L 150.5 200 L 145 196.5 L 144 193.5 L 144 141.5 L 147.5 137 L 149.5 136 L 202.5 136 L 206 138 L 207.5 141 L 218.5 130 L 222.5 128 Z M 160 152 L 161 159 L 161 157 L 167 153 L 160 152 Z M 170 152 L 170 153 L 173 154 L 184 165 L 197 153 L 170 152 Z " /><path fill="rgb(30,129,206)" stroke="rgb(30,129,206)" stroke-width="1" opacity="1" d="M 245.5 152 L 378.5 152 L 383 155.5 L 384 161.5 L 380.5 167 L 377.5 168 L 246.5 168 L 241 164.5 L 240 157.5 L 243.5 153 L 245.5 152 Z " /><path fill="rgb(30,129,206)" stroke="rgb(30,129,206)" stroke-width="1" opacity="1" d="M 245.5 184 L 378.5 184 L 383 187.5 L 384 194.5 L 380.5 199 L 378.5 200 L 245.5 200 L 241 196.5 L 240 189.5 L 243.5 185 L 245.5 184 Z " /><path fill="rgb(30,129,206)" stroke="rgb(30,129,206)" stroke-width="1" opacity="1" d="M 222.5 208 L 230 210 L 232 217.5 L 230 221.5 L 200.5 251 L 188.5 262 L 181.5 263 L 162 244.5 L 160.5 241 L 160 264 L 202.5 264 L 207 267.5 L 208 273.5 L 204.5 279 L 201.5 280 L 150.5 280 L 145 276.5 L 144 274.5 L 144 221.5 L 147.5 217 L 149.5 216 L 202.5 216 L 206 218 L 207.5 221 L 218.5 210 L 222.5 208 Z M 160 232 L 161 239 L 161 237 L 167 233 L 160 232 Z M 170 232 L 170 233 L 173 234 L 184 245 L 197 233 L 170 232 Z " /><path fill="rgb(30,129,206)" stroke="rgb(30,129,206)" stroke-width="1" opacity="1" d="M 245.5 232 L 378.5 232 L 383 235.5 L 384 241.5 L 380.5 247 L 377.5 248 L 246.5 248 L 241 244.5 L 240 237.5 L 243.5 233 L 245.5 232 Z " /><path fill="rgb(30,129,206)" stroke="rgb(30,129,206)" stroke-width="1" opacity="1" d="M 245.5 264 L 322.5 264 L 327 267.5 L 328 273.5 L 324.5 279 L 321.5 280 L 246.5 280 L 241 276.5 L 240 269.5 L 243.5 265 L 245.5 264 Z " /><path fill="rgb(30,129,206)" stroke="rgb(30,129,206)" stroke-width="1" opacity="1" d="M 222.5 288 L 230 290 L 232 297.5 L 230 301.5 L 200.5 331 L 188.5 342 L 181.5 343 L 162 324.5 L 160.5 321 L 160 344 L 202.5 344 L 207 347.5 L 208 353.5 L 204.5 359 L 201.5 360 L 150.5 360 L 145 356.5 L 144 354.5 L 144 301.5 L 147.5 297 L 149.5 296 L 202.5 296 L 206 298 L 207.5 301 L 218.5 290 L 222.5 288 Z M 160 312 L 161 319 L 161 317 L 167 313 L 160 312 Z M 170 312 L 170 313 L 173 314 L 184 325 L 197 313 L 170 312 Z " /><path fill="rgb(30,129,206)" stroke="rgb(30,129,206)" stroke-width="1" opacity="1" d="M 245.5 312 L 322.5 312 L 327 315.5 L 328 321.5 L 324.5 327 L 321.5 328 L 246.5 328 L 241 324.5 L 240 317.5 L 243.5 313 L 245.5 312 Z " /><path fill="rgb(30,129,206)" stroke="rgb(30,129,206)" stroke-width="1" opacity="1" d="M 245.5 344 L 346.5 344 L 351 347.5 L 352 353.5 L 348.5 359 L 345.5 360 L 246.5 360 L 241 356.5 L 240 349.5 L 243.5 345 L 245.5 344 Z " /><path fill="rgb(154,201,255)" stroke="rgb(154,201,255)" stroke-width="1" opacity="1" d="M 146.5 49 L 145.5 51 L 146.5 49 Z " /><path fill="rgb(154,201,255)" stroke="rgb(154,201,255)" stroke-width="1" opacity="1" d="M 381.5 49 L 382.5 51 L 381.5 49 Z " /><path fill="rgb(154,201,255)" stroke="rgb(154,201,255)" stroke-width="1" opacity="1" d="M 145.5 109 L 146.5 111 L 145.5 109 Z " /><path fill="rgb(154,201,255)" stroke="rgb(154,201,255)" stroke-width="1" opacity="1" d="M 382.5 109 L 381.5 111 L 382.5 109 Z " /><path fill="rgb(154,201,255)" stroke="rgb(154,201,255)" stroke-width="1" opacity="1" d="M 218.5 129 L 208.5 140 L 218.5 129 Z " /><path fill="rgb(154,201,255)" stroke="rgb(154,201,255)" stroke-width="1" opacity="1" d="M 146.5 137 L 145.5 139 L 146.5 137 Z " /><path fill="rgb(154,201,255)" stroke="rgb(154,201,255)" stroke-width="1" opacity="1" d="M 205.5 137 L 206.5 139 L 205.5 137 Z " /><path fill="rgb(154,201,255)" stroke="rgb(154,201,255)" stroke-width="1" opacity="1" d="M 230.5 141 L 200.5 172 L 230.5 141 Z " /><path fill="rgb(154,201,255)" stroke="rgb(154,201,255)" stroke-width="1" opacity="1" d="M 242.5 153 L 241.5 155 L 242.5 153 Z " /><path fill="rgb(154,201,255)" stroke="rgb(154,201,255)" stroke-width="1" opacity="1" d="M 381.5 153 L 382.5 155 L 381.5 153 Z " /><path fill="rgb(154,201,255)" stroke="rgb(154,201,255)" stroke-width="1" opacity="1" d="M 241.5 165 L 242.5 167 L 241.5 165 Z " /><path fill="rgb(154,201,255)" stroke="rgb(154,201,255)" stroke-width="1" opacity="1" d="M 382.5 165 L 381.5 167 L 382.5 165 Z " /><path fill="rgb(154,201,255)" stroke="rgb(154,201,255)" stroke-width="1" opacity="1" d="M 205.5 185 L 206.5 187 L 205.5 185 Z " /><path fill="rgb(154,201,255)" stroke="rgb(154,201,255)" stroke-width="1" opacity="1" d="M 242.5 185 L 241.5 187 L 242.5 185 Z " /><path fill="rgb(154,201,255)" stroke="rgb(154,201,255)" stroke-width="1" opacity="1" d="M 381.5 185 L 382.5 187 L 381.5 185 Z " /><path fill="rgb(154,201,255)" stroke="rgb(154,201,255)" stroke-width="1" opacity="1" d="M 145.5 197 L 146.5 199 L 145.5 197 Z " /><path fill="rgb(154,201,255)" stroke="rgb(154,201,255)" stroke-width="1" opacity="1" d="M 206.5 197 L 205.5 199 L 206.5 197 Z " /><path fill="rgb(154,201,255)" stroke="rgb(154,201,255)" stroke-width="1" opacity="1" d="M 241.5 197 L 242.5 199 L 241.5 197 Z " /><path fill="rgb(154,201,255)" stroke="rgb(154,201,255)" stroke-width="1" opacity="1" d="M 382.5 197 L 381.5 199 L 382.5 197 Z " /><path fill="rgb(154,201,255)" stroke="rgb(154,201,255)" stroke-width="1" opacity="1" d="M 218.5 209 L 208.5 220 L 218.5 209 Z " /><path fill="rgb(154,201,255)" stroke="rgb(154,201,255)" stroke-width="1" opacity="1" d="M 146.5 217 L 145.5 219 L 146.5 217 Z " /><path fill="rgb(154,201,255)" stroke="rgb(154,201,255)" stroke-width="1" opacity="1" d="M 205.5 217 L 206.5 219 L 205.5 217 Z " /><path fill="rgb(154,201,255)" stroke="rgb(154,201,255)" stroke-width="1" opacity="1" d="M 230.5 221 L 200.5 252 L 230.5 221 Z " /><path fill="rgb(154,201,255)" stroke="rgb(154,201,255)" stroke-width="1" opacity="1" d="M 242.5 233 L 241.5 235 L 242.5 233 Z " /><path fill="rgb(154,201,255)" stroke="rgb(154,201,255)" stroke-width="1" opacity="1" d="M 381.5 233 L 382.5 235 L 381.5 233 Z " /><path fill="rgb(154,201,255)" stroke="rgb(154,201,255)" stroke-width="1" opacity="1" d="M 241.5 245 L 242.5 247 L 241.5 245 Z " /><path fill="rgb(154,201,255)" stroke="rgb(154,201,255)" stroke-width="1" opacity="1" d="M 382.5 245 L 381.5 247 L 382.5 245 Z " /><path fill="rgb(154,201,255)" stroke="rgb(154,201,255)" stroke-width="1" opacity="1" d="M 205.5 265 L 206.5 267 L 205.5 265 Z " /><path fill="rgb(154,201,255)" stroke="rgb(154,201,255)" stroke-width="1" opacity="1" d="M 242.5 265 L 241.5 267 L 242.5 265 Z " /><path fill="rgb(154,201,255)" stroke="rgb(154,201,255)" stroke-width="1" opacity="1" d="M 325.5 265 L 326.5 267 L 325.5 265 Z " /><path fill="rgb(154,201,255)" stroke="rgb(154,201,255)" stroke-width="1" opacity="1" d="M 145.5 277 L 146.5 279 L 145.5 277 Z " /><path fill="rgb(154,201,255)" stroke="rgb(154,201,255)" stroke-width="1" opacity="1" d="M 206.5 277 L 205.5 279 L 206.5 277 Z " /><path fill="rgb(154,201,255)" stroke="rgb(154,201,255)" stroke-width="1" opacity="1" d="M 241.5 277 L 242.5 279 L 241.5 277 Z " /><path fill="rgb(154,201,255)" stroke="rgb(154,201,255)" stroke-width="1" opacity="1" d="M 326.5 277 L 325.5 279 L 326.5 277 Z " /><path fill="rgb(154,201,255)" stroke="rgb(154,201,255)" stroke-width="1" opacity="1" d="M 393.5 279 L 415.5 302 L 393.5 279 Z " /><path fill="rgb(154,201,255)" stroke="rgb(154,201,255)" stroke-width="1" opacity="1" d="M 218.5 289 L 208.5 300 L 218.5 289 Z " /><path fill="rgb(154,201,255)" stroke="rgb(154,201,255)" stroke-width="1" opacity="1" d="M 146.5 297 L 145.5 299 L 146.5 297 Z " /><path fill="rgb(154,201,255)" stroke="rgb(154,201,255)" stroke-width="1" opacity="1" d="M 205.5 297 L 206.5 299 L 205.5 297 Z " /><path fill="rgb(154,201,255)" stroke="rgb(154,201,255)" stroke-width="1" opacity="1" d="M 230.5 301 L 200.5 332 L 230.5 301 Z " /><path fill="rgb(154,201,255)" stroke="rgb(154,201,255)" stroke-width="1" opacity="1" d="M 242.5 313 L 241.5 315 L 242.5 313 Z " /><path fill="rgb(154,201,255)" stroke="rgb(154,201,255)" stroke-width="1" opacity="1" d="M 325.5 313 L 326.5 315 L 325.5 313 Z " /><path fill="rgb(154,201,255)" stroke="rgb(154,201,255)" stroke-width="1" opacity="1" d="M 241.5 325 L 242.5 327 L 241.5 325 Z " /><path fill="rgb(154,201,255)" stroke="rgb(154,201,255)" stroke-width="1" opacity="1" d="M 326.5 325 L 325.5 327 L 326.5 325 Z " /><path fill="rgb(154,201,255)" stroke="rgb(154,201,255)" stroke-width="1" opacity="1" d="M 347.5 325 L 378.5 357 L 347.5 325 Z " /><path fill="rgb(154,201,255)" stroke="rgb(154,201,255)" stroke-width="1" opacity="1" d="M 205.5 345 L 206.5 347 L 205.5 345 Z " /><path fill="rgb(154,201,255)" stroke="rgb(154,201,255)" stroke-width="1" opacity="1" d="M 242.5 345 L 241.5 347 L 242.5 345 Z " /><path fill="rgb(154,201,255)" stroke="rgb(154,201,255)" stroke-width="1" opacity="1" d="M 349.5 345 L 350.5 347 L 349.5 345 Z " /><path fill="rgb(154,201,255)" stroke="rgb(154,201,255)" stroke-width="1" opacity="1" d="M 145.5 357 L 146.5 359 L 145.5 357 Z " /><path fill="rgb(154,201,255)" stroke="rgb(154,201,255)" stroke-width="1" opacity="1" d="M 206.5 357 L 205.5 359 L 206.5 357 Z " /><path fill="rgb(154,201,255)" stroke="rgb(154,201,255)" stroke-width="1" opacity="1" d="M 241.5 357 L 242.5 359 L 241.5 357 Z " /><path fill="rgb(154,201,255)" stroke="rgb(154,201,255)" stroke-width="1" opacity="1" d="M 350.5 357 L 349.5 359 L 350.5 357 Z " /><path fill="rgb(155,201,255)" stroke="rgb(155,201,255)" stroke-width="1" opacity="1" d="M 112 32 L 416 32 L 416 300.5 L 393.5 279 Q 384.6 270.9 366.5 272 Q 352.1 275.1 345 285.5 L 340 297.5 L 340 310.5 Q 341.7 319.8 347 325.5 L 386 364.5 Q 380.3 371.3 378 381.5 L 377 392 L 112 392 L 112 32 Z M 149 48 L 147 49 L 144 53 L 144 108 L 145 110 L 149 112 L 380 112 L 382 111 L 384 108 L 384 53 L 383 51 L 380 48 L 149 48 Z M 221 128 L 208 140 L 207 139 L 204 136 L 149 136 L 147 137 L 144 141 L 144 196 L 145 198 L 149 200 L 204 200 L 206 199 L 208 196 L 207 187 Q 205 183 200 184 L 200 173 L 231 142 L 232 133 Q 230 126 221 128 Z M 245 152 L 243 153 L 240 157 L 241 166 L 245 168 L 380 168 L 382 167 L 384 164 L 383 155 L 380 152 L 245 152 Z M 245 184 L 243 185 L 240 189 L 241 198 L 245 200 L 380 200 L 382 199 L 384 196 L 383 187 L 380 184 L 245 184 Z M 221 208 L 208 220 L 207 219 L 204 216 L 149 216 L 147 217 L 144 221 L 144 276 L 145 278 L 149 280 L 204 280 L 206 279 L 208 276 L 207 267 Q 205 263 200 264 L 200 253 L 231 222 L 232 213 Q 230 206 221 208 Z M 245 232 L 243 233 L 240 237 L 241 246 L 245 248 L 380 248 L 382 247 L 384 244 L 383 235 L 380 232 L 245 232 Z M 245 264 L 243 265 L 240 269 L 241 278 L 245 280 L 324 280 L 326 279 L 328 276 L 327 267 L 324 264 L 245 264 Z M 221 288 L 208 300 L 207 299 L 204 296 L 149 296 L 147 297 L 144 301 L 144 356 L 145 358 L 149 360 L 204 360 L 206 359 L 208 356 L 207 347 Q 205 343 200 344 L 200 333 L 231 302 L 232 293 Q 230 286 221 288 Z M 245 312 L 243 313 L 240 317 L 241 326 L 245 328 L 324 328 L 326 327 L 328 324 L 327 315 L 324 312 L 245 312 Z M 245 344 L 243 345 L 240 349 L 241 358 L 245 360 L 348 360 L 350 359 L 352 356 L 351 347 L 348 344 L 245 344 Z " /></svg>